<?xml version="1.0" encoding="UTF-8" standalone="no"?>
<!-- Created with Inkscape (http://www.inkscape.org/) -->
<svg
   xmlns:dc="http://purl.org/dc/elements/1.1/"
   xmlns:cc="http://creativecommons.org/ns#"
   xmlns:rdf="http://www.w3.org/1999/02/22-rdf-syntax-ns#"
   xmlns:svg="http://www.w3.org/2000/svg"
   xmlns="http://www.w3.org/2000/svg"
   xmlns:sodipodi="http://sodipodi.sourceforge.net/DTD/sodipodi-0.dtd"
   xmlns:inkscape="http://www.inkscape.org/namespaces/inkscape"
   width="64px"
   height="64px"
   id="svg2492"
   sodipodi:version="0.32"
   inkscape:version="0.46"
   sodipodi:docname="icon.svg"
   inkscape:output_extension="org.inkscape.output.svg.inkscape"
   inkscape:export-filename="/home/mike/devel/jldrill/data/jldrill/icon.png"
   inkscape:export-xdpi="90"
   inkscape:export-ydpi="90">
  <defs
     id="defs2494">
    <inkscape:perspective
       sodipodi:type="inkscape:persp3d"
       inkscape:vp_x="0 : 32 : 1"
       inkscape:vp_y="0 : 1000 : 0"
       inkscape:vp_z="64 : 32 : 1"
       inkscape:persp3d-origin="32 : 21.333333 : 1"
       id="perspective2500" />
    <filter
       inkscape:collect="always"
       id="filter3301">
      <feGaussianBlur
         inkscape:collect="always"
         stdDeviation="0.28944628"
         id="feGaussianBlur3303" />
    </filter>
    <filter
       inkscape:collect="always"
       id="filter3358">
      <feGaussianBlur
         inkscape:collect="always"
         stdDeviation="0.615"
         id="feGaussianBlur3360" />
    </filter>
    <filter
       inkscape:collect="always"
       id="filter3372">
      <feGaussianBlur
         inkscape:collect="always"
         stdDeviation="0.57856341"
         id="feGaussianBlur3374" />
    </filter>
  </defs>
  <sodipodi:namedview
     id="base"
     pagecolor="#ffffff"
     bordercolor="#666666"
     borderopacity="1.0"
     inkscape:pageopacity="0.0"
     inkscape:pageshadow="2"
     inkscape:zoom="7.7781746"
     inkscape:cx="27.903733"
     inkscape:cy="37.640253"
     inkscape:current-layer="layer1"
     showgrid="true"
     inkscape:document-units="px"
     inkscape:grid-bbox="true"
     inkscape:window-width="1272"
     inkscape:window-height="690"
     inkscape:window-x="0"
     inkscape:window-y="0">
    <inkscape:grid
       type="xygrid"
       id="grid2506"
       visible="true"
       enabled="true" />
  </sodipodi:namedview>
  <metadata
     id="metadata2497">
    <rdf:RDF>
      <cc:Work
         rdf:about="">
        <dc:format>image/svg+xml</dc:format>
        <dc:type
           rdf:resource="http://purl.org/dc/dcmitype/StillImage" />
      </cc:Work>
    </rdf:RDF>
  </metadata>
  <g
     id="layer1"
     inkscape:label="Layer 1"
     inkscape:groupmode="layer">
    <rect
       style="opacity:1;fill:#fff5b7;fill-opacity:1;stroke:#1a3a7b;stroke-width:2.5;stroke-linecap:round;stroke-linejoin:round;stroke-miterlimit:4;stroke-dasharray:none;stroke-opacity:1;filter:url(#filter3358)"
       id="rect3356"
       width="58"
       height="60"
       x="3"
       y="0.45454526"
       transform="matrix(1.0073101,0,0,0.6845699,-0.2605598,11.380198)" />
    <path
       transform="matrix(0.8100748,0,0,0.9926356,3.7847077,1.8371992)"
       style="font-size:32px;font-style:normal;font-variant:normal;font-weight:bold;font-stretch:normal;text-align:center;line-height:125%;writing-mode:lr-tb;text-anchor:middle;fill:#000000;fill-opacity:1;stroke:none;stroke-width:1px;stroke-linecap:butt;stroke-linejoin:miter;stroke-opacity:1;filter:url(#filter3301);font-family:Dejima;-inkscape-font-specification:Dejima Medium"
       d="M 5.1011021,24.301932 C 4.8877669,23.939281 4.791767,23.533948 4.8131021,23.085932 C 4.8344337,22.637949 5.0371001,22.147282 5.4211021,21.613932 C 5.8050994,21.059284 6.0504324,20.653951 6.1571021,20.397932 C 6.2424323,20.163284 6.6904318,18.627286 7.5011021,15.789932 C 7.6077642,16.088622 7.7677641,16.451288 7.9811021,16.877932 C 8.2157636,17.283287 8.3650968,17.539287 8.4291021,17.645932 L 17.485102,17.645932 L 17.485102,14.061932 C 17.805087,14.21129 18.21042,14.360624 18.701102,14.509932 C 19.213086,14.637957 19.650419,14.78729 20.013102,14.957932 C 20.397085,15.107289 20.738418,15.352623 21.037102,15.693932 C 21.143751,15.907289 21.165084,16.067289 21.101102,16.173932 C 21.058417,16.280622 20.941084,16.451288 20.749102,16.685932 C 20.557085,16.899288 20.429085,17.080621 20.365102,17.229932 L 20.365102,17.645932 L 30.541102,17.645932 C 30.690408,17.517954 30.861074,17.315287 31.053102,17.037932 C 31.245074,16.760621 31.426407,16.557955 31.597102,16.429932 C 31.76774,16.301955 31.95974,16.280622 32.173102,16.365932 C 32.791739,16.621955 33.261072,16.973954 33.581102,17.421932 C 33.922405,17.869953 34.221071,18.477953 34.477102,19.245932 C 34.541071,19.416619 34.519737,19.555285 34.413102,19.661932 C 34.306404,19.768618 34.135738,19.875285 33.901102,19.981932 C 33.687738,20.088618 33.527738,20.195284 33.421102,20.301932 L 29.773102,23.181932 L 30.637102,19.245932 L 17.581102,19.245932 C 17.901087,19.395285 18.30642,19.544618 18.797102,19.693932 C 19.309086,19.821951 19.746419,19.971285 20.109102,20.141932 C 20.493085,20.291284 20.834418,20.536617 21.133102,20.877932 C 21.239751,21.091283 21.261084,21.251283 21.197102,21.357932 C 21.154417,21.464616 21.037084,21.635283 20.845102,21.869932 C 20.653085,22.083283 20.525085,22.264616 20.461102,22.413932 L 20.461102,23.949932 L 24.109102,23.949932 C 24.343747,23.736614 24.663747,23.341948 25.069102,22.765932 C 25.474413,22.189949 25.826413,21.848616 26.125102,21.741932 C 26.274412,21.763283 26.445079,21.837949 26.637102,21.965932 C 26.850412,22.093949 27.074411,22.275282 27.309102,22.509932 C 27.565078,22.744615 27.789077,22.968615 27.981102,23.181932 C 28.173077,23.373948 28.407743,23.629948 28.685102,23.949932 C 28.96241,24.248614 29.165076,24.472613 29.293102,24.621932 C 29.421076,24.89928 29.389076,25.123279 29.197102,25.293932 C 29.005076,25.464612 28.749076,25.549946 28.429102,25.549932 L 20.461102,25.549932 L 20.461102,28.781932 L 23.917102,28.781932 C 24.151748,28.568609 24.471747,28.173943 24.877102,27.597932 C 25.282413,27.021944 25.634413,26.680611 25.933102,26.573932 C 26.082412,26.595278 26.253079,26.669945 26.445102,26.797932 C 26.658412,26.925944 26.882412,27.107277 27.117102,27.341932 C 27.373078,27.57661 27.597078,27.80061 27.789102,28.013932 C 27.981077,28.205943 28.215744,28.461943 28.493102,28.781932 C 28.77041,29.080609 28.973076,29.304609 29.101102,29.453932 C 29.229076,29.731275 29.197076,29.955275 29.005102,30.125932 C 28.813076,30.296608 28.557077,30.381941 28.237102,30.381932 L 20.461102,30.381932 L 20.461102,33.261932 L 20.333102,33.549932 L 26.605102,33.549932 C 26.839745,33.336605 27.159745,32.941938 27.565102,32.365932 C 27.970411,31.789939 28.32241,31.448606 28.621102,31.341932 C 28.77041,31.363273 28.941076,31.43794 29.133102,31.565932 C 29.346409,31.69394 29.570409,31.875273 29.805102,32.109932 C 30.061075,32.344606 30.285075,32.568605 30.477102,32.781932 C 30.669074,32.973938 30.903741,33.229938 31.181102,33.549932 C 31.458407,33.848604 31.661074,34.072604 31.789102,34.221932 C 31.917073,34.49927 31.885073,34.72327 31.693102,34.893932 C 31.501074,35.064603 31.245074,35.149936 30.925102,35.149932 L 21.421102,35.149932 C 22.253083,36.045935 22.989082,36.728601 23.629102,37.197932 C 25.378413,38.541933 27.138411,39.629932 28.909102,40.461932 C 29.357076,40.675264 29.794409,40.835264 30.221102,40.941932 C 30.647741,41.06993 31.127741,41.187263 31.661102,41.293932 C 32.194406,41.400597 32.653073,41.507263 33.037102,41.613932 C 32.781072,41.763263 32.461073,41.912596 32.077102,42.061932 C 31.714407,42.232596 31.38374,42.392596 31.085102,42.541932 C 30.807741,42.712595 30.530408,42.915262 30.253102,43.149932 C 30.103742,43.277928 29.986409,43.501928 29.901102,43.821932 C 29.815742,44.141927 29.730409,44.397927 29.645102,44.589932 C 29.559742,44.781926 29.410409,44.845926 29.197102,44.781932 C 28.557077,44.54726 27.949077,44.248594 27.373102,43.885932 C 26.797078,43.523261 26.359745,43.224595 26.061102,42.989932 C 25.783746,42.776595 25.303747,42.349929 24.621102,41.709932 C 23.959748,41.091263 23.501082,40.675264 23.245102,40.461932 C 22.285083,39.608598 21.165084,38.2966 19.885102,36.525932 C 19.757085,36.333935 19.629086,36.141935 19.501102,35.949932 C 19.330419,36.355268 19.138419,36.739268 18.925102,37.101932 C 18.05042,38.573933 17.154421,39.693932 16.237102,40.461932 C 14.679757,41.784596 13.143759,42.712595 11.629102,43.245932 C 10.925094,43.501928 10.242428,43.693928 9.5811021,43.821932 C 8.9410962,43.971261 8.3970968,44.067261 7.9491021,44.109932 C 7.5010977,44.152594 6.7437651,44.216594 5.6771021,44.301932 C 6.1037657,44.088594 6.6157652,43.843261 7.2131021,43.565932 C 7.8104307,43.309928 8.3437635,43.064595 8.8131021,42.829932 C 9.2824292,42.595262 9.7730954,42.317929 10.285102,41.997932 C 11.67176,41.16593 12.887759,40.237931 13.933102,39.213932 C 14.722424,38.445933 15.586423,37.357934 16.525102,35.949932 C 16.695755,35.693936 16.845088,35.427269 16.973102,35.149932 L 6.7331021,35.149932 L 6.7331021,33.549932 L 17.581102,33.549932 L 17.581102,30.381932 L 10.381102,30.381932 L 10.381102,28.781932 L 17.581102,28.781932 L 17.581102,25.549932 L 9.5171021,25.549932 L 9.5171021,23.949932 L 17.581102,23.949932 L 17.581102,19.245932 L 8.8771021,19.245932 C 8.9837628,19.885951 9.0157628,20.504617 8.9731021,21.101932 C 8.9304296,21.699283 8.7597631,22.296616 8.4611021,22.893932 C 7.8424307,24.109947 7.0104315,24.749947 5.9651021,24.813932 C 5.6024329,24.83528 5.3144332,24.664613 5.1011021,24.301932 M 43.725102,28.013932 L 47.661102,28.013932 L 47.661102,17.613932 L 37.357102,17.613932 L 37.357102,16.013932 L 47.661102,16.013932 C 47.767756,15.928622 47.895756,15.779289 48.045102,15.565932 C 48.215756,15.331289 48.365089,15.160623 48.493102,15.053932 C 48.642422,14.94729 48.813088,14.91529 49.005102,14.957932 C 49.901087,15.213956 50.637087,15.885955 51.213102,16.973932 C 51.277086,17.101954 51.277086,17.219287 51.213102,17.325932 C 51.149086,17.411287 51.031753,17.517954 50.861102,17.645932 C 50.711753,17.75262 50.605087,17.84862 50.541102,17.933932 L 50.541102,28.557932 L 50.605102,28.173932 C 50.925086,28.301943 51.319753,28.440609 51.789102,28.589932 C 52.258418,28.717943 52.663751,28.867276 53.005102,29.037932 C 53.36775,29.187275 53.71975,29.389942 54.061102,29.645932 C 54.125083,29.752608 54.13575,29.837941 54.093102,29.901932 C 54.07175,29.944608 53.986417,30.040608 53.837102,30.189932 C 53.709083,30.317941 53.62375,30.413941 53.581102,30.477932 L 52.621102,32.141932 L 58.285102,32.141932 C 58.391745,32.056606 58.519745,31.907273 58.669102,31.693932 C 58.839745,31.459273 58.989078,31.288607 59.117102,31.181932 C 59.266411,31.075274 59.437078,31.043274 59.629102,31.085932 C 60.525077,31.34194 61.261076,32.013939 61.837102,33.101932 C 61.901075,33.229938 61.901075,33.347271 61.837102,33.453932 C 61.773075,33.539271 61.655742,33.645938 61.485102,33.773932 C 61.335742,33.880604 61.229076,33.976604 61.165102,34.061932 L 61.165102,43.565932 C 61.058409,43.971261 60.96241,44.25926 60.877102,44.429932 C 60.813076,44.621927 60.685076,44.80326 60.493102,44.973932 C 60.301077,45.165926 60.045077,45.272593 59.725102,45.293932 C 59.213078,45.251259 58.797078,44.83526 58.477102,44.045932 L 44.813102,44.045932 C 44.685092,44.429927 44.525093,44.717927 44.333102,44.909932 C 44.162426,45.123259 43.885093,45.251259 43.501102,45.293932 C 42.925094,45.251259 42.445095,44.67526 42.061102,43.565932 L 42.061102,31.117932 C 42.381095,31.267273 42.850428,31.43794 43.469102,31.629932 C 44.109093,31.800606 44.578426,31.971273 44.877102,32.141932 L 49.933102,32.141932 L 50.381102,29.485932 C 50.189087,29.805941 50.029087,30.051275 49.901102,30.221932 C 49.794421,30.392608 49.613088,30.573941 49.357102,30.765932 C 49.101088,30.936607 48.823755,31.032607 48.525102,31.053932 C 48.141089,31.075274 47.767756,30.840607 47.405102,30.349932 C 47.063757,29.859275 46.79709,29.549942 46.605102,29.421932 C 46.285091,29.229942 45.975758,29.059276 45.677102,28.909932 C 45.399758,28.760609 45.069092,28.611276 44.685102,28.461932 C 44.301093,28.291276 43.981093,28.141943 43.725102,28.013932 M 38.989102,18.285932 C 39.373098,18.39262 39.853097,18.509953 40.429102,18.637932 C 41.026429,18.765952 41.538429,18.904619 41.965102,19.053932 C 42.413095,19.181952 42.861094,19.373952 43.309102,19.629932 C 44.18376,20.120618 44.727759,20.760617 44.941102,21.549932 C 45.111759,22.253949 44.887759,22.765948 44.269102,23.085932 C 43.86376,23.299281 43.255761,23.181948 42.445102,22.733932 C 42.231762,22.605949 42.050428,22.477949 41.901102,22.349932 C 41.773095,22.200616 41.602429,21.987283 41.389102,21.709932 C 41.197096,21.432616 41.069096,21.251283 41.005102,21.165932 C 40.685096,20.760617 40.311764,20.248618 39.885102,19.629932 C 39.479764,18.989952 39.181098,18.541953 38.989102,18.285932 M 41.293102,28.781932 C 40.93043,28.547276 40.621097,28.28061 40.365102,27.981932 C 40.109097,27.683277 39.853097,27.331277 39.597102,26.925932 C 39.341098,26.499278 39.106431,26.157945 38.893102,25.901932 L 40.909102,25.101932 L 47.341102,22.605932 L 42.157102,27.981932 C 42.093095,28.045943 42.007762,28.173943 41.901102,28.365932 C 41.794429,28.557943 41.687762,28.696609 41.581102,28.781932 C 41.495762,28.867276 41.399762,28.867276 41.293102,28.781932 M 52.909102,18.413932 C 53.229084,18.477953 53.62375,18.541953 54.093102,18.605932 C 54.562416,18.669953 54.978416,18.755286 55.341102,18.861932 C 55.703748,18.947286 56.077081,19.075286 56.461102,19.245932 C 56.525081,19.267285 56.663747,19.331285 56.877102,19.437932 C 57.090413,19.523285 57.218413,19.587285 57.261102,19.629932 C 57.32508,19.651285 57.431746,19.704618 57.581102,19.789932 C 57.751746,19.875285 57.869079,19.949951 57.933102,20.013932 C 57.997079,20.077951 58.082412,20.173951 58.189102,20.301932 C 58.317079,20.408618 58.423745,20.525951 58.509102,20.653932 C 58.594412,20.78195 58.679745,20.931284 58.765102,21.101932 C 58.957078,21.48595 59.010411,21.859283 58.925102,22.221932 C 58.839745,22.584615 58.626412,22.851282 58.285102,23.021932 C 58.114412,23.107281 57.943746,23.160615 57.773102,23.181932 C 57.623746,23.181948 57.442413,23.139281 57.229102,23.053932 C 57.03708,22.947282 56.887747,22.861948 56.781102,22.797932 C 56.674414,22.733949 56.503747,22.616615 56.269102,22.445932 C 55.991748,22.253949 55.714415,21.944616 55.437102,21.517932 C 55.181082,21.06995 55.010415,20.792617 54.925102,20.685932 L 52.909102,18.413932 M 55.309102,28.173932 C 54.967749,27.981943 54.679749,27.747277 54.445102,27.469932 C 54.23175,27.192611 54.00775,26.861944 53.773102,26.477932 C 53.538417,26.072612 53.314417,25.752612 53.101102,25.517932 L 55.597102,24.525932 L 61.069102,22.381932 L 61.069102,17.709932 L 52.333102,17.709932 L 52.333102,16.109932 L 61.069102,16.109932 C 61.175743,16.024622 61.303743,15.875289 61.453102,15.661932 C 61.623742,15.427289 61.773075,15.256623 61.901102,15.149932 C 62.050408,15.04329 62.221075,15.01129 62.413102,15.053932 C 63.309074,15.309956 64.045073,15.981955 64.621102,17.069932 C 64.685072,17.197954 64.685072,17.315287 64.621102,17.421932 C 64.557073,17.507287 64.439739,17.613954 64.269102,17.741932 C 64.11974,17.84862 64.013073,17.94462 63.949102,18.029932 L 63.949102,29.037932 C 63.565074,30.296608 62.861074,30.979274 61.837102,31.085932 C 61.581076,31.128607 61.367742,31.064607 61.197102,30.893932 C 61.026409,30.701941 60.845076,30.456607 60.653102,30.157932 C 60.48241,29.859275 60.301077,29.645942 60.109102,29.517932 C 59.746411,29.240609 59.277078,28.931276 58.701102,28.589932 C 58.146412,28.227276 57.783746,27.99261 57.613102,27.885932 L 61.069102,27.885932 L 61.069102,22.509932 L 56.365102,27.405932 C 56.301081,27.469944 56.194414,27.597944 56.045102,27.789932 C 55.917081,27.981943 55.789081,28.12061 55.661102,28.205932 C 55.554415,28.269943 55.437082,28.259276 55.309102,28.173932 M 45.325102,33.741932 C 45.133092,33.955271 45.005092,34.136604 44.941102,34.285932 L 44.941102,36.845932 L 58.285102,36.845932 L 58.285102,33.741932 L 45.325102,33.741932 M 44.941102,38.445932 L 44.941102,42.445932 L 58.285102,42.445932 L 58.285102,38.445932 L 44.941102,38.445932"
       id="text2502" />
    <text
       xml:space="preserve"
       style="font-size:64.90812683px;font-style:normal;font-variant:normal;font-weight:bold;font-stretch:normal;writing-mode:lr-tb;opacity:0.7;fill:#cbe2e3;fill-opacity:1;stroke:none;stroke-width:1px;stroke-linecap:butt;stroke-linejoin:miter;stroke-opacity:1;filter:url(#filter3372);font-family:Dejima;-inkscape-font-specification:Dejima Medium"
       x="14.088505"
       y="55.560089"
       id="text3368"><tspan
         sodipodi:role="line"
         id="tspan3370"
         x="14.088505"
         y="55.560089">?</tspan></text>
    <text
       xml:space="preserve"
       style="font-size:64.90812683000000050px;font-style:normal;font-variant:normal;font-weight:bold;font-stretch:normal;writing-mode:lr-tb;fill:none;fill-opacity:1;stroke:#236771;stroke-width:2;stroke-linecap:butt;stroke-linejoin:miter;stroke-opacity:1;font-family:Dejima;-inkscape-font-specification:Dejima Medium;stroke-miterlimit:4;stroke-dasharray:none"
       x="14.006569"
       y="55.721493"
       id="text3364"><tspan
         sodipodi:role="line"
         id="tspan3366"
         x="14.006569"
         y="55.721493">?</tspan></text>
  </g>
</svg>
