/* XPM */
static char * icon_xpm[] = {
"32 32 354 2",
"  	c None",
". 	c #246771",
"+ 	c #21656F",
"@ 	c #226670",
"# 	c #256872",
"$ 	c #296B75",
"% 	c #35757D",
"& 	c #508990",
"* 	c #73A2A7",
"= 	c #94BABD",
"- 	c #A6C7CA",
"; 	c #9FC2C5",
"> 	c #8EB5B9",
", 	c #67999F",
"' 	c #417D85",
") 	c #236771",
"! 	c #193979",
"~ 	c #1A397A",
"{ 	c #1A387A",
"] 	c #215A74",
"^ 	c #4B808E",
"/ 	c #9FB6CA",
"( 	c #9CB5C8",
"_ 	c #99B2C5",
": 	c #9AB3C6",
"< 	c #A1B6CA",
"[ 	c #387481",
"} 	c #256673",
"| 	c #1C3C7B",
"1 	c #213F7D",
"2 	c #BBBEA5",
"3 	c #D1CFAA",
"4 	c #D0CFAA",
"5 	c #D5D2AB",
"6 	c #598782",
"7 	c #84AAA8",
"8 	c #CCDCD1",
"9 	c #CDDDD2",
"0 	c #5D8F91",
"a 	c #548482",
"b 	c #D6D2AC",
"c 	c #23407E",
"d 	c #E5DFB0",
"e 	c #FFF5B7",
"f 	c #FFF8B8",
"g 	c #679387",
"h 	c #8EB2AA",
"i 	c #DAE7D6",
"j 	c #DAE8D6",
"k 	c #E0ECD9",
"l 	c #D3E2CF",
"m 	c #ADC7BA",
"n 	c #A9C4B8",
"o 	c #D6E4D2",
"p 	c #DCE9D7",
"q 	c #276A74",
"r 	c #D6DBAB",
"s 	c #22407E",
"t 	c #E4DFB0",
"u 	c #FFF9BA",
"v 	c #FEF4B6",
"w 	c #699488",
"x 	c #709494",
"y 	c #D7E4D2",
"z 	c #619292",
"A 	c #2B6D76",
"B 	c #19606D",
"C 	c #528782",
"D 	c #4F837F",
"E 	c #1A616E",
"F 	c #5E9090",
"G 	c #E4F0DC",
"H 	c #DEECD9",
"I 	c #D6E3D2",
"J 	c #CBD9CA",
"K 	c #689897",
"L 	c #89AA93",
"M 	c #FFFFC1",
"N 	c #C7BE8E",
"O 	c #FFF4B6",
"P 	c #FDF3B5",
"Q 	c #7A7557",
"R 	c #EAE1A8",
"S 	c #E8DFA6",
"T 	c #EDE3A8",
"U 	c #638F83",
"V 	c #336E76",
"W 	c #216973",
"X 	c #6E9384",
"Y 	c #BDC499",
"Z 	c #F2E6AA",
"` 	c #736C4F",
" .	c #D1C793",
"..	c #FFF6B8",
"+.	c #15505B",
"@.	c #65898C",
"#.	c #98A7A6",
"$.	c #91A1A1",
"%.	c #8C9C9D",
"&.	c #81A6A2",
"*.	c #215155",
"=.	c #1C1A13",
"-.	c #1D1C15",
";.	c #000000",
">.	c #312F23",
",.	c #FFF7B9",
"'.	c #FAF0B3",
").	c #2A281E",
"!.	c #2B291F",
"~.	c #2B271D",
"{.	c #245256",
"].	c #467572",
"^.	c #3A3B2E",
"/.	c #2D2A1F",
"(.	c #2C2A20",
"_.	c #060604",
":.	c #343225",
"<.	c #FFFEBE",
"[.	c #B9C9A3",
"}.	c #457D82",
"|.	c #D4E1D1",
"1.	c #DDEBD8",
"2.	c #B2C2B9",
"3.	c #9DADAA",
"4.	c #96B8B0",
"5.	c #417270",
"6.	c #F0E5AA",
"7.	c #FFFFC4",
"8.	c #100F0C",
"9.	c #958F6B",
"0.	c #D0C896",
"a.	c #FFFABB",
"b.	c #FFFBBB",
"c.	c #9A9873",
"d.	c #110F0B",
"e.	c #FFFDBD",
"f.	c #FFFFC2",
"g.	c #171611",
"h.	c #C5BD8D",
"i.	c #FFF7B8",
"j.	c #89A992",
"k.	c #548588",
"l.	c #8C9D9D",
"m.	c #D7E5D4",
"n.	c #B0C0B8",
"o.	c #9CACA9",
"p.	c #81AAA4",
"q.	c #265154",
"r.	c #0F0E0B",
"s.	c #8E8865",
"t.	c #FFF8B9",
"u.	c #13130E",
"v.	c #0F0E0A",
"w.	c #FFF8BA",
"x.	c #A69F77",
"y.	c #1A1912",
"z.	c #F6ECB0",
"A.	c #1F1E16",
"B.	c #D2CA97",
"C.	c #E5E4AF",
"D.	c #135C6B",
"E.	c #D5E5D3",
"F.	c #9BAAA7",
"G.	c #D0DDCE",
"H.	c #AFBFB7",
"I.	c #A1B0AC",
"J.	c #4C8588",
"K.	c #B4C7A4",
"L.	c #353326",
"M.	c #CDC593",
"N.	c #0E0D09",
"O.	c #67634A",
"P.	c #F1E8AD",
"Q.	c #060605",
"R.	c #040403",
"S.	c #040303",
"T.	c #7E795A",
"U.	c #F5EFB4",
"V.	c #20646F",
"W.	c #84ABA6",
"X.	c #AAB9B3",
"Y.	c #A7B6B1",
"Z.	c #B1C0B8",
"`.	c #879F9E",
" +	c #165F6D",
".+	c #EBE1A8",
"++	c #1C1B14",
"@+	c #837E5E",
"#+	c #E9DFA7",
"$+	c #97916C",
"%+	c #1B1A13",
"&+	c #EFE6AC",
"*+	c #E9E0A7",
"=+	c #E1D8A1",
"-+	c #F4EBAF",
";+	c #E7E6B0",
">+	c #20656E",
",+	c #86ACA7",
"'+	c #8D9E9E",
")+	c #90A0A1",
"!+	c #D9E7D5",
"~+	c #B7C2BA",
"{+	c #266771",
"]+	c #BBCDA7",
"^+	c #0C0B08",
"/+	c #3A382A",
"(+	c #F2E9AE",
"_+	c #E7DDA6",
":+	c #E7DEA6",
"<+	c #96906C",
"[+	c #EFE5AB",
"}+	c #928C68",
"|+	c #DCDAA6",
"1+	c #20646E",
"2+	c #92B5AD",
"3+	c #DEEBD8",
"4+	c #DBE9D6",
"5+	c #B8C7BD",
"6+	c #BAC6BD",
"7+	c #367279",
"8+	c #163E44",
"9+	c #EBE1A7",
"0+	c #CFC794",
"a+	c #F8EEB1",
"b+	c #514E3A",
"c+	c #040302",
"d+	c #8A8563",
"e+	c #9B956F",
"f+	c #3B392A",
"g+	c #3D3B2C",
"h+	c #27261C",
"i+	c #070605",
"j+	c #3F3D2D",
"k+	c #444131",
"l+	c #504A37",
"m+	c #185A66",
"n+	c #8BB0A9",
"o+	c #DFEBD9",
"p+	c #407C80",
"q+	c #315F5F",
"r+	c #2D2B1F",
"s+	c #FFFCBC",
"t+	c #E2D9A2",
"u+	c #FFFFBF",
"v+	c #ADA67C",
"w+	c #FFFFC5",
"x+	c #6D998C",
"y+	c #3F747C",
"z+	c #DEEAD7",
"A+	c #D7E5D3",
"B+	c #286771",
"C+	c #2E5A5C",
"D+	c #BDB486",
"E+	c #53503B",
"F+	c #222119",
"G+	c #BAB385",
"H+	c #B6AF82",
"I+	c #26251C",
"J+	c #F5EBB0",
"K+	c #FBF2B4",
"L+	c #615D46",
"M+	c #5F5B44",
"N+	c #3F3C2D",
"O+	c #0C0C09",
"P+	c #635F47",
"Q+	c #5E5B45",
"R+	c #23666F",
"S+	c #83989A",
"T+	c #B7C6BD",
"U+	c #DDEAD8",
"V+	c #5B8E8F",
"W+	c #1C5057",
"X+	c #484432",
"Y+	c #6E6A4F",
"Z+	c #6D694F",
"`+	c #6D694E",
" @	c #847F5E",
".@	c #F5ECB0",
"+@	c #FDF3B6",
"@@	c #363527",
"#@	c #010101",
"$@	c #6C684E",
"%@	c #F0E8AF",
"&@	c #20656F",
"*@	c #D3E1D1",
"=@	c #D4E3D2",
"-@	c #1E646E",
";@	c #CCC592",
">@	c #D6CE9A",
",@	c #A19A74",
"'@	c #F3E9AE",
")@	c #807D5F",
"!@	c #6C9997",
"~@	c #639392",
"{@	c #2F6F75",
"]@	c #050504",
"^@	c #908A67",
"/@	c #C2BA8B",
"(@	c #1B3A3D",
"_@	c #9DB89B",
":@	c #96B196",
"<@	c #95B196",
"[@	c #9EB597",
"}@	c #C3BB8B",
"|@	c #F2E8AD",
"1@	c #F0E6AC",
"2@	c #E3DAA3",
"3@	c #868160",
"4@	c #6F6B4F",
"5@	c #1D160E",
"6@	c #6F664A",
"7@	c #FFFCBA",
"8@	c #FFFFBD",
"9@	c #FFFDBB",
"0@	c #D8D09B",
"a@	c #FFFFC0",
"b@	c #FCF2B5",
"c@	c #323124",
"d@	c #C7C08F",
"e@	c #FCF4B8",
"f@	c #256D78",
"g@	c #1C6773",
"h@	c #186471",
"i@	c #0A5666",
"j@	c #095666",
"k@	c #0B5767",
"l@	c #256972",
"m@	c #161610",
"n@	c #DAD29D",
"o@	c #F9EFB3",
"p@	c #F7F0B4",
"q@	c #CED8CA",
"r@	c #E8F2DE",
"s@	c #E7F1DD",
"t@	c #CEDFCF",
"u@	c #2D6E74",
"v@	c #898361",
"w@	c #A19B73",
"x@	c #1F646E",
"y@	c #C2D7C8",
"z@	c #2C6C73",
"A@	c #FFF6B7",
"B@	c #1B3B7B",
"C@	c #395383",
"D@	c #3D5684",
"E@	c #3C5784",
"F@	c #9FB7C5",
"G@	c #A0B8C6",
"H@	c #8FACBA",
"I@	c #226470",
"J@	c #BFD5DC",
"K@	c #C0D6DD",
"L@	c #A8C4CC",
"M@	c #266973",
"                                                                ",
"                                                                ",
"                            . + @ #                             ",
"                  $ @ % & * = - ; > , ' )                       ",
"! ~ ~ ~ ~ ~ ~ { ] ^ / ( _ _ _ _ _ _ _ : < [ } | ~ ~ ~ ~ ~ ~ ~ ! ",
"1 2 3 4 4 4 4 5 6 7 8 8 8 8 8 8 8 8 8 8 8 9 0 a b 4 4 4 4 3 2 1 ",
"c d e e e e e f g h i j k l m n o p i i i i k q r e e e e e d c ",
"s t e e u v e f w x y z A B C D E F G H H I J K L M M N O e t s ",
"s t e P Q R S T U V W X Y Z `  ...+.@.#.#.$.%.&.*.=.-.;.>.,.t s ",
"s t e '.;.).!.~.{.].^./.!.(._.:.<.[.}.|.1.2.3.4.5.6.7.8.9...t s ",
"s t e 0.;.e a.b.c.d.M a.e.f.g.h.i.j.k.l.m.n.o.p.q.;.P r.s...t s ",
"s t t.u.v.w.e e x.y.e.z.A.e.B.e C.D.E.F.G.H.I.J.K.L.M.N.s...t s ",
"s t i.O.P.-.Q.Q.R.;.Q.S.;.T.t.U.V.W.j X.Y.Z.`. +.+++@+r.s...t s ",
"s t e i.e .+#+#+$+%+&+*+=+-+;+>+,+I '+)+!+~+{+]+^+/+<.r.s...t s ",
"s t e e e (+_+:+<+%+[+}+;.|+1+2+3+4+5+o 6+7+8+9+0+a+b+c+d+..t s ",
"s t e e e e+f+g+h+i+j+k+l+m+n+o+j !+4+p p+q+r+;.[+v s+;.t+e t s ",
"s t e e u e.u+u+v+A.w+u+x+y+z+!+j !+A+B+C+D+E+F+G+H+I+J+e e t s ",
"s t e K+L+M+M+M+N+O+P+Q+R+S+T+j j U+V+W+X+Y+Y+Y+Z+`+;. @e e t s ",
"s t e v .@.@.@+@@@#@$@%@&@*@i j j =@-@;.;@+@P P P K+;.>@e e t s ",
"s t e e e e v ,@;.'@;.)@@ !@!@!@!@~@{@;.R.]@]@]@]@]@;.>@e e t s ",
"s t e e e v '@;.^@i./@;.(@_@:@<@<@<@[@;.}@|@P.P.P.1@;.>@e e t s ",
"s t e v e 2@;.3@u v e 4@;.5@6@7@8@8@9@;.0@M a@a@a@u+;.>@e e t s ",
"s t e b@^@c@d@a.v e v e@f@g@h@i@j@k@l@;.m@++++++++++;.n@e e t s ",
"s t e o@M e.e e e e e p@-@q@r@s@s@t@u@v@u+f.f.f.f.w+w@b.v e t s ",
"s t e e e e e e e e e p@x@!+j j j y@z@A@e e e e e e e v e e t s ",
"s t e v v v v v v v v p@x@!+!+!+!+y@z@A@v v v v v v v v v e t s ",
"B@C@D@D@D@D@D@D@D@D@D@E@&@F@G@G@G@H@I@D@D@D@D@D@D@D@D@D@D@D@C@B@",
"                        x@J@K@K@K@L@V.                          ",
"                        @ q q q q M@@                           ",
"                                                                ",
"                                                                ",
"                                                                "};
